<?xml version="1.0" encoding="utf-8"?>
<!-- Generator: Adobe Illustrator 21.1.0, SVG Export Plug-In . SVG Version: 6.00 Build 0)  -->
<svg version="1.1" id="Ebene_1" xmlns="http://www.w3.org/2000/svg" xmlns:xlink="http://www.w3.org/1999/xlink" x="0px" y="0px"
	 viewBox="0 0 250 120" style="enable-background:new 0 0 250 120;" xml:space="preserve">
<style type="text/css">
	.st0{fill:#808080;}
	.st1{clip-path:url(#SVGID_2_);fill:url(#SVGID_3_);}
	.st2{clip-path:url(#SVGID_5_);fill:url(#SVGID_6_);}
	.st3{clip-path:url(#SVGID_8_);fill:url(#SVGID_9_);}
</style>
<g>
	<g>
		<path d="M2.3,51.8H0v-2.1h2.3c1.5,0,2.6-0.5,3.4-1.4V34.5h2.2v14.9C6.3,51,4.6,51.8,2.3,51.8"/>
		<path d="M23.3,51.8v-6.4h-8.9v6.4h-2.2V36.9c1.6-1.7,4.1-2.6,6.6-2.6c2.5,0,5,1,6.6,2.6v14.9H23.3z M23.3,38
			c-1.2-1.1-2.8-1.6-4.4-1.6c-1.7,0-3.3,0.5-4.4,1.6v5.4h8.9V38z"/>
		<path d="M36,51.8H30V34.5H36c4,0,6.5,1.4,8.2,3.4v10.5C42.7,50.4,40.2,51.8,36,51.8 M42,38.9c-1.2-1.3-3.3-2.3-6-2.3h-3.9v13.2H36
			c2.7,0,4.8-0.9,6-2.3V38.9z"/>
		<path d="M55.5,52.1c-2.4,0-4.9-0.6-7.1-2V36.3c2.1-1.4,4.7-2,7.1-2c2.3,0,5,0.6,7.1,2v3.4h-2.2v-2.1c-1.4-0.8-3.1-1.3-4.9-1.3
			c-1.7,0-3.5,0.4-4.9,1.3v4.3h7.8v2h-7.8v4.8c1.4,0.8,3.1,1.3,4.9,1.3c1.8,0,3.5-0.4,4.9-1.3v-2.1h2.2v3.4
			C60.5,51.5,57.9,52.1,55.5,52.1"/>
		<polygon class="st0" points="82.2,51.8 82.2,44 72.3,44 72.3,51.8 70.1,51.8 70.1,34.5 72.3,34.5 72.3,41.9 82.2,41.9 82.2,34.5 
			84.4,34.5 84.4,51.8 		"/>
		<path class="st0" d="M96.4,52.1c-2.9,0-5.4-0.9-7.6-2.7V37c2.1-1.8,4.6-2.7,7.6-2.7c2.9,0,5.4,0.9,7.6,2.7v12.3
			C101.9,51.1,99.3,52.1,96.4,52.1 M101.8,38.1c-1.4-1.1-3.2-1.8-5.4-1.8c-2.1,0-4,0.6-5.4,1.8v10.1c1.4,1.1,3.2,1.8,5.4,1.8
			c2.2,0,4-0.6,5.4-1.8V38.1z"/>
		<path class="st0" d="M115.3,52.1c-2.4,0-4.9-0.7-7.1-2.4V36.7c2.1-1.6,4.7-2.4,7.1-2.4c2.3,0,5,0.7,7.1,2.4v3.1h-2.2v-1.9
			c-1.4-1-3.1-1.5-4.9-1.5c-1.7,0-3.5,0.5-4.9,1.5v10.7c1.4,1,3.1,1.5,4.9,1.5c1.8,0,3.5-0.5,4.9-1.5v-1.9h2.2v3.1
			C120.3,51.4,117.7,52.1,115.3,52.1"/>
		<polygon class="st0" points="139,51.8 139,44 129,44 129,51.8 126.8,51.8 126.8,34.5 129,34.5 129,41.9 139,41.9 139,34.5 
			141.1,34.5 141.1,51.8 		"/>
		<path class="st0" d="M152.4,52.1c-2.3,0-4.7-0.6-6.8-2.1v-3.3h2.2v2c1.4,0.9,3.1,1.3,4.7,1.3c1.6,0,3.3-0.4,4.7-1.3v-2.6L145.6,42
			v-5.6c2.1-1.5,4.2-2.1,6.8-2.1c2.5,0,4.6,0.6,6.8,2.1v3.3H157v-2c-1.4-0.9-2.8-1.3-4.6-1.3c-1.7,0-3.1,0.4-4.6,1.3v2.9l11.5,4.2
			V50C157.1,51.4,154.8,52.1,152.4,52.1"/>
		<path class="st0" d="M170.5,52.1c-2.4,0-4.9-0.7-7.1-2.4V36.7c2.1-1.6,4.7-2.4,7.1-2.4c2.3,0,5,0.7,7.1,2.4v3.1h-2.2v-1.9
			c-1.4-1-3.1-1.5-4.9-1.5c-1.7,0-3.5,0.5-4.9,1.5v10.7c1.4,1,3.1,1.5,4.9,1.5c1.8,0,3.5-0.5,4.9-1.5v-1.9h2.2v3.1
			C175.6,51.4,173,52.1,170.5,52.1"/>
		<polygon class="st0" points="194.2,51.8 194.2,44 184.2,44 184.2,51.8 182,51.8 182,34.5 184.2,34.5 184.2,41.9 194.2,41.9 
			194.2,34.5 196.3,34.5 196.3,51.8 		"/>
		<path class="st0" d="M208.2,52.1c-3,0-5.6-1.1-7.3-2.8V34.5h2.2v13.7c1.2,1.1,2.8,1.8,5.2,1.8c2.4,0,3.9-0.6,5.2-1.8V34.5h2.2
			v14.7C213.9,50.9,211.3,52.1,208.2,52.1"/>
		<polygon class="st0" points="220.2,51.8 220.2,34.5 222.3,34.5 222.3,49.8 232,49.8 232,51.8 		"/>
		<path class="st0" d="M242.9,52.1c-2.4,0-4.9-0.6-7.1-2V36.3c2.1-1.4,4.7-2,7.1-2c2.3,0,5,0.6,7.1,2v3.4h-2.2v-2.1
			c-1.4-0.8-3.1-1.3-4.9-1.3c-1.7,0-3.5,0.4-4.9,1.3v4.3h7.8v2H238v4.8c1.4,0.8,3.1,1.3,4.9,1.3c1.8,0,3.5-0.4,4.9-1.3v-2.1h2.2v3.4
			C247.9,51.5,245.3,52.1,242.9,52.1"/>
		<polygon points="74.3,60.2 75.3,60.2 77,67.6 77,67.6 78.8,60.2 79.5,60.2 77.4,68.6 76.5,68.6 74.8,61.1 74.7,61.1 73,68.6 
			72.1,68.6 70,60.2 70.8,60.2 72.5,67.6 72.6,67.6 		"/>
		<path d="M81.3,60.2h0.9V61h-0.9V60.2z M81.3,62.7H82v5.9h-0.7V62.7z"/>
		<rect x="84.2" y="60.2" width="0.7" height="8.5"/>
		<path d="M87,68.6v-8.5h0.7v3.3h0c0.3-0.5,0.8-0.8,1.4-0.8c1.5,0,1.6,1.1,1.6,1.9v4.2h-0.7v-4.1c0-0.7-0.3-1.3-1.1-1.3
			c-0.6,0-1.3,0.4-1.3,1.8v3.7H87z"/>
		<path d="M93.3,65.8v0.5c0,0.8,0.2,1.9,1.3,1.9c0.9,0,1.3-0.6,1.3-1.4h0.7c-0.1,1.4-0.9,1.9-2,1.9c-1,0-2-0.4-2-2.2v-1.5
			c0-1.7,0.7-2.5,2-2.5c2,0,2,1.5,2,3.2H93.3z M95.9,65.2c0-1.3-0.2-2.1-1.3-2.1c-1.1,0-1.3,0.8-1.3,2.1H95.9z"/>
		<rect x="98.6" y="60.2" width="0.7" height="8.5"/>
		<path d="M102,68.6h-0.7v-5.9h0.6v0.7h0c0.3-0.5,0.7-0.8,1.4-0.8c0.6,0,1.1,0.3,1.3,0.9c0.3-0.6,0.8-0.9,1.5-0.9
			c1,0,1.5,0.7,1.5,1.6v4.4H107v-4.2c0-0.6-0.2-1.2-0.9-1.2c-0.9,0-1.2,0.9-1.2,1.7v3.8h-0.7v-4.2c0-0.6-0.2-1.2-0.9-1.2
			c-0.9,0-1.2,0.9-1.2,1.7V68.6z"/>
		<path d="M111.3,68.7c-1.3,0-1.8-0.6-1.8-1.9h0.7c0,0.8,0.2,1.3,1.1,1.3c0.7,0,1-0.4,1-1c0-1.5-2.7-1.1-2.7-3.1
			c0-1.1,0.7-1.5,1.8-1.5c1.2,0,1.5,0.8,1.5,1.7h-0.7c0-0.7-0.2-1.1-1-1.1c-0.5,0-0.9,0.3-0.9,0.9c0,1.5,2.7,1.1,2.7,3.1
			C113,68.2,112.4,68.7,111.3,68.7"/>
		<path d="M114.8,68.6v-8.5h0.7v3.3h0c0.3-0.5,0.8-0.8,1.4-0.8c1.5,0,1.6,1.1,1.6,1.9v4.2h-0.7v-4.1c0-0.7-0.3-1.3-1.1-1.3
			c-0.6,0-1.3,0.4-1.3,1.8v3.7H114.8z"/>
		<path d="M123.6,67.9L123.6,67.9c-0.4,0.6-1,0.8-1.7,0.8c-1.1,0-1.6-0.7-1.6-1.7c0-2.1,2.1-1.9,3.3-2v-0.5c0-0.9-0.3-1.4-1.2-1.4
			c-0.6,0-1.2,0.3-1.2,1h-0.7c0.1-1.1,0.9-1.6,2-1.6c0.6,0,1.8,0.1,1.8,1.6v3c0,0.4,0,0.8,0.1,1.5h-0.7V67.9z M123.5,65.6
			c-1,0-2.5-0.1-2.5,1.4c0,0.7,0.3,1.2,1.1,1.2c0.8,0,1.5-0.7,1.5-1.5V65.6z"/>
		<polygon points="127.9,67.7 127.9,67.7 129.4,62.7 130,62.7 128.3,68.6 127.5,68.6 125.7,62.7 126.5,62.7 		"/>
		<path d="M132,65.8v0.5c0,0.8,0.2,1.9,1.3,1.9c0.9,0,1.3-0.6,1.3-1.4h0.7c-0.1,1.4-0.9,1.9-2,1.9c-1,0-2-0.4-2-2.2v-1.5
			c0-1.7,0.7-2.5,2-2.5c2,0,2,1.5,2,3.2H132z M134.7,65.2c0-1.3-0.2-2.1-1.3-2.1c-1.1,0-1.3,0.8-1.3,2.1H134.7z"/>
		<path d="M137.9,68.6h-0.7v-5.9h0.7v0.7h0c0.3-0.5,0.8-0.8,1.4-0.8c1.5,0,1.6,1.1,1.6,1.9v4.2h-0.7v-4.1c0-0.7-0.3-1.3-1.1-1.3
			c-0.6,0-1.3,0.4-1.3,1.8V68.6z"/>
		<path d="M148.7,60c2.5,0,2.6,2.1,2.6,4.4s0,4.4-2.6,4.4c-2.5,0-2.6-2.1-2.6-4.4S146.2,60,148.7,60 M148.7,68.1
			c1.8,0,1.8-1.5,1.8-3.8c0-2.2,0-3.8-1.8-3.8c-1.8,0-1.8,1.5-1.8,3.8C146.9,66.6,147,68.1,148.7,68.1"/>
		<rect x="153.4" y="60.2" width="0.7" height="8.5"/>
		<path d="M159.3,67.9L159.3,67.9c-0.4,0.6-0.8,0.9-1.5,0.9c-1.7,0-1.8-1.7-1.8-3.1c0-1.1,0-3.1,1.8-3.1c0.5,0,1.1,0.2,1.4,0.7l0,0
			v-3.1h0.7v7.3c0,0.6,0,1,0.1,1.2h-0.7L159.3,67.9z M159.3,66.2v-1.1c0-0.4,0-2-1.3-2c-1.3,0-1.3,1.1-1.3,2.5
			c0,2.2,0.5,2.5,1.3,2.5C158.7,68.2,159.3,67.6,159.3,66.2"/>
		<path d="M162.5,65.8v0.5c0,0.8,0.2,1.9,1.3,1.9c0.9,0,1.3-0.6,1.3-1.4h0.7c-0.1,1.4-0.9,1.9-2,1.9c-1,0-2-0.4-2-2.2v-1.5
			c0-1.7,0.7-2.5,2-2.5c2,0,2,1.5,2,3.2H162.5z M165.2,65.2c0-1.3-0.2-2.1-1.3-2.1c-1.1,0-1.3,0.8-1.3,2.1H165.2z"/>
		<path d="M168.4,68.6h-0.7v-5.9h0.7v0.7h0c0.3-0.5,0.8-0.8,1.4-0.8c1.5,0,1.6,1.1,1.6,1.9v4.2h-0.7v-4.1c0-0.7-0.3-1.3-1.1-1.3
			c-0.6,0-1.3,0.4-1.3,1.8V68.6z"/>
		<path d="M173.3,68.6c0-0.2,0.1-0.4,0.1-0.6v-7.9h0.7v3.2l0,0c0.4-0.6,0.8-0.8,1.5-0.8c1.9,0,1.8,2,1.8,3.1c0,1.3-0.1,3.1-1.8,3.1
			c-0.7,0-1.2-0.3-1.5-0.8h0v0.7H173.3z M175.4,68.2c1.3,0,1.3-1.1,1.3-2.5c0-1.4,0-2.5-1.3-2.5c-1.1,0-1.3,1.5-1.3,2.4
			C174.1,66.5,174.1,68.2,175.4,68.2"/>
		<path d="M182.8,62.7v5.9h-0.6V68h0c-0.4,0.5-0.8,0.8-1.5,0.8c-1.2,0-1.6-0.9-1.6-1.9v-4.2h0.7v4.1c0,0.2,0,1.4,1,1.4
			c0.9,0,1.3-0.9,1.3-1.3v-4.2H182.8z"/>
		<path d="M185.5,63.5L185.5,63.5c0.3-0.6,0.9-0.9,1.7-0.9v0.7c-1-0.1-1.7,0.5-1.7,1.5v3.8h-0.7v-5.9h0.7V63.5z"/>
		<path d="M191.8,62.7h0.7c0,0.6,0,0.9,0,1.2v5c0,1.3-0.4,2.1-2.1,2.1c-1.5,0-1.8-1-1.7-1.6h0.7c0,0.7,0.5,1.1,1.1,1.1
			c1.4,0,1.3-0.7,1.3-2.5h0c-0.3,0.5-0.9,0.7-1.4,0.7c-1.7,0-1.8-1.5-1.8-2.8c0-1.4,0-1.4,0.2-2c0.1-0.2,0.5-1.2,1.7-1.2
			c0.6,0,1.2,0.3,1.5,0.8l0,0V62.7z M189.2,65.5c0,1.2,0,2.5,1.3,2.5c0.6,0,1-0.4,1.1-0.7c0.2-0.5,0.2-0.7,0.2-2.5
			c0-1.2-0.7-1.7-1.3-1.7C189.2,63.1,189.2,64.6,189.2,65.5"/>
		<polygon points="201.7,60.2 201.7,60.8 198.6,60.8 198.6,64 201.6,64 201.6,64.6 198.6,64.6 198.6,68 201.8,68 201.8,68.6 
			197.9,68.6 197.9,60.2 		"/>
		<rect x="203.7" y="60.2" width="0.7" height="8.5"/>
		<path d="M208,68.7c-1.3,0-1.8-0.6-1.8-1.9h0.7c0,0.8,0.2,1.3,1.1,1.3c0.7,0,1-0.4,1-1c0-1.5-2.7-1.1-2.7-3.1
			c0-1.1,0.7-1.5,1.8-1.5c1.2,0,1.5,0.8,1.5,1.7H209c0-0.7-0.2-1.1-1-1.1c-0.5,0-0.9,0.3-0.9,0.9c0,1.5,2.7,1.1,2.7,3.1
			C209.8,68.2,209.1,68.7,208,68.7"/>
		<path d="M212.1,63.3h-0.9v-0.6h0.9v-1c0-0.6,0.1-1.6,1.5-1.6c0.1,0,0.2,0,0.4,0v0.6h-0.5c-0.7,0-0.7,0.6-0.7,0.9v1h1.2v0.6h-1.2
			v5.4h-0.7V63.3z"/>
		<rect x="215.7" y="60.2" width="0.7" height="8.5"/>
		<path d="M219.1,65.8v0.5c0,0.8,0.2,1.9,1.3,1.9c0.9,0,1.3-0.6,1.3-1.4h0.7c-0.1,1.4-0.9,1.9-2,1.9c-1,0-2-0.4-2-2.2v-1.5
			c0-1.7,0.7-2.5,2-2.5c2,0,2,1.5,2,3.2H219.1z M221.8,65.2c0-1.3-0.2-2.1-1.3-2.1s-1.3,0.8-1.3,2.1H221.8z"/>
		<path d="M223.8,63.3v-0.6h0.9v-1.2l0.7-0.3v1.5h1.2v0.6h-1.2v3.8c0,0.8,0.1,1,0.6,1c0.2,0,0.4,0,0.6,0v0.6c-0.2,0-0.4,0-0.7,0
			c-0.9,0-1.2-0.4-1.2-1.1v-4.2H223.8z"/>
		<path d="M228.3,68.6v-8.5h0.7v3.3h0c0.3-0.5,0.8-0.8,1.4-0.8c1.5,0,1.6,1.1,1.6,1.9v4.2h-0.7v-4.1c0-0.7-0.3-1.3-1.1-1.3
			c-0.6,0-1.3,0.4-1.3,1.8v3.7H228.3z"/>
	</g>
	<g>
		<defs>
			<path id="SVGID_1_" d="M95.7,11c0,5.3,4.3,9.5,9.5,9.5c5.3,0,9.5-4.3,9.5-9.5c0-5.3-4.3-9.5-9.5-9.5C99.9,1.5,95.7,5.7,95.7,11"
				/>
		</defs>
		<clipPath id="SVGID_2_">
			<use xlink:href="#SVGID_1_"  style="overflow:visible;"/>
		</clipPath>
		
			<radialGradient id="SVGID_3_" cx="-168.5121" cy="482.8136" r="0.6169" gradientTransform="matrix(-12.8586 9.8685 9.8685 12.8586 -6823.1475 -4537.8721)" gradientUnits="userSpaceOnUse">
			<stop  offset="0" style="stop-color:#FFFFFF"/>
			<stop  offset="1" style="stop-color:#F50000"/>
		</radialGradient>
		<polygon class="st1" points="124,13.5 102.7,29.8 86.4,8.5 107.7,-7.8 		"/>
	</g>
	<g>
		<defs>
			<path id="SVGID_4_" d="M112.8,109c0,5.3,4.3,9.5,9.5,9.5c5.3,0,9.5-4.3,9.5-9.5c0-5.3-4.3-9.5-9.5-9.5
				C117,99.5,112.8,103.7,112.8,109"/>
		</defs>
		<clipPath id="SVGID_5_">
			<use xlink:href="#SVGID_4_"  style="overflow:visible;"/>
		</clipPath>
		
			<radialGradient id="SVGID_6_" cx="-170.2785" cy="479.4352" r="0.6169" gradientTransform="matrix(-12.8586 9.8685 9.8685 12.8586 -6795.3916 -4378.9971)" gradientUnits="userSpaceOnUse">
			<stop  offset="0" style="stop-color:#FFFFFF"/>
			<stop  offset="1" style="stop-color:#F50000"/>
		</radialGradient>
		<polygon class="st2" points="141.1,111.5 119.9,127.8 103.6,106.5 124.8,90.2 		"/>
	</g>
	<g>
		<defs>
			<path id="SVGID_7_" d="M159.9,83.2c0,3.6,2.9,6.5,6.5,6.5c3.6,0,6.5-2.9,6.5-6.5c0-3.6-2.9-6.5-6.5-6.5
				C162.8,76.7,159.9,79.6,159.9,83.2"/>
		</defs>
		<clipPath id="SVGID_8_">
			<use xlink:href="#SVGID_7_"  style="overflow:visible;"/>
		</clipPath>
		
			<radialGradient id="SVGID_9_" cx="-167.8938" cy="478.3239" r="0.6168" gradientTransform="matrix(-8.7968 6.7513 6.7513 8.7968 -4537.6675 -2993.4392)" gradientUnits="userSpaceOnUse">
			<stop  offset="0" style="stop-color:#FFFFFF"/>
			<stop  offset="1" style="stop-color:#F50000"/>
		</radialGradient>
		<polygon class="st3" points="179.3,84.9 164.7,96 153.6,81.5 168.1,70.4 		"/>
	</g>
</g>
</svg>
