<?xml version="1.0" encoding="utf-8"?>
<!-- Generator: Adobe Illustrator 21.1.0, SVG Export Plug-In . SVG Version: 6.00 Build 0)  -->
<svg version="1.1" id="Ebene_1" xmlns="http://www.w3.org/2000/svg" xmlns:xlink="http://www.w3.org/1999/xlink" x="0px" y="0px"
	 viewBox="0 0 200 60" style="enable-background:new 0 0 200 60;" xml:space="preserve">
<style type="text/css">
	.st0{fill:#808080;}
</style>
<g>
	<g>
		<path d="M1.8,36.9H0v-1.7h1.8c1.2,0,2.1-0.4,2.7-1.1V23.1h1.7V35C5.1,36.3,3.7,36.9,1.8,36.9"/>
		<path d="M18.6,36.9v-5.2h-7.1v5.2H9.8V25c1.3-1.3,3.3-2.1,5.3-2.1c2,0,4,0.8,5.3,2.1v11.9H18.6z M18.6,25.8
			c-0.9-0.8-2.2-1.3-3.6-1.3c-1.3,0-2.6,0.4-3.6,1.3v4.3h7.1V25.8z"/>
		<path d="M28.8,36.9H24V23.1h4.9c3.2,0,5.2,1.1,6.5,2.7v8.4C34.1,35.7,32.1,36.9,28.8,36.9 M33.6,26.6c-0.9-1.1-2.6-1.8-4.8-1.8
			h-3.1v10.5h3.1c2.2,0,3.8-0.7,4.8-1.9V26.6z"/>
		<path d="M44.4,37.1c-1.9,0-3.9-0.5-5.7-1.6v-11c1.7-1.1,3.7-1.6,5.7-1.6c1.9,0,4,0.5,5.7,1.6v2.7h-1.7v-1.7c-1.1-0.7-2.5-1-3.9-1
			c-1.4,0-2.8,0.3-3.9,1V29h6.2v1.6h-6.2v3.9c1.1,0.7,2.5,1,3.9,1c1.4,0,2.8-0.3,3.9-1v-1.7h1.7v2.7C48.4,36.6,46.3,37.1,44.4,37.1"
			/>
		<polygon class="st0" points="65.8,36.9 65.8,30.6 57.8,30.6 57.8,36.9 56.1,36.9 56.1,23.1 57.8,23.1 57.8,29 65.8,29 65.8,23.1 
			67.5,23.1 67.5,36.9 		"/>
		<path class="st0" d="M77.1,37.1c-2.3,0-4.3-0.7-6.1-2.2v-9.9c1.7-1.4,3.7-2.2,6.1-2.2c2.3,0,4.3,0.7,6.1,2.2v9.9
			C81.5,36.4,79.5,37.1,77.1,37.1 M81.4,25.9c-1.1-0.9-2.6-1.4-4.3-1.4c-1.7,0-3.2,0.5-4.3,1.4V34c1.1,0.9,2.6,1.4,4.3,1.4
			c1.7,0,3.2-0.5,4.3-1.4V25.9z"/>
		<path class="st0" d="M92.3,37.1c-1.9,0-3.9-0.6-5.7-1.9V24.8c1.7-1.3,3.7-1.9,5.7-1.9c1.9,0,4,0.5,5.7,1.9v2.4h-1.7v-1.5
			c-1.1-0.8-2.5-1.2-3.9-1.2c-1.4,0-2.8,0.4-3.9,1.2v8.6c1.1,0.8,2.5,1.2,3.9,1.2c1.4,0,2.8-0.4,3.9-1.2v-1.5h1.7v2.4
			C96.3,36.5,94.2,37.1,92.3,37.1"/>
		<polygon class="st0" points="111.2,36.9 111.2,30.6 103.2,30.6 103.2,36.9 101.5,36.9 101.5,23.1 103.2,23.1 103.2,29 111.2,29 
			111.2,23.1 112.9,23.1 112.9,36.9 		"/>
		<path class="st0" d="M121.9,37.1c-1.8,0-3.7-0.5-5.5-1.7v-2.6h1.7v1.6c1.1,0.7,2.5,1,3.7,1c1.3,0,2.6-0.3,3.7-1v-2.1l-9.2-3.3
			v-4.4c1.7-1.2,3.3-1.7,5.4-1.7c2,0,3.7,0.5,5.4,1.7v2.6h-1.7v-1.6c-1.1-0.7-2.2-1-3.7-1c-1.4,0-2.5,0.3-3.7,1v2.3l9.2,3.3v4.2
			C125.7,36.6,123.8,37.1,121.9,37.1"/>
		<path class="st0" d="M136.4,37.1c-1.9,0-3.9-0.6-5.7-1.9V24.8c1.7-1.3,3.7-1.9,5.7-1.9c1.9,0,4,0.5,5.7,1.9v2.4h-1.7v-1.5
			c-1.1-0.8-2.5-1.2-3.9-1.2c-1.4,0-2.8,0.4-3.9,1.2v8.6c1.1,0.8,2.5,1.2,3.9,1.2c1.4,0,2.8-0.4,3.9-1.2v-1.5h1.7v2.4
			C140.5,36.5,138.4,37.1,136.4,37.1"/>
		<polygon class="st0" points="155.3,36.9 155.3,30.6 147.4,30.6 147.4,36.9 145.6,36.9 145.6,23.1 147.4,23.1 147.4,29 155.3,29 
			155.3,23.1 157.1,23.1 157.1,36.9 		"/>
		<path class="st0" d="M166.6,37.1c-2.4,0-4.5-0.9-5.9-2.2V23.1h1.7v11c1,0.9,2.2,1.4,4.1,1.4c1.9,0,3.1-0.5,4.1-1.4v-11h1.7v11.8
			C171.1,36.2,169,37.1,166.6,37.1"/>
		<polygon class="st0" points="176.1,36.9 176.1,23.1 177.9,23.1 177.9,35.3 185.6,35.3 185.6,36.9 		"/>
		<path class="st0" d="M194.3,37.1c-1.9,0-3.9-0.5-5.7-1.6v-11c1.7-1.1,3.7-1.6,5.7-1.6c1.9,0,4,0.5,5.7,1.6v2.7h-1.7v-1.7
			c-1.1-0.7-2.5-1-3.9-1c-1.4,0-2.8,0.3-3.9,1V29h6.2v1.6h-6.2v3.9c1.1,0.7,2.5,1,3.9,1c1.4,0,2.8-0.3,3.9-1v-1.7h1.7v2.7
			C198.3,36.6,196.2,37.1,194.3,37.1"/>
	</g>
</g>
</svg>
