<?xml version="1.0" encoding="utf-8"?>
<!-- Generator: Adobe Illustrator 21.1.0, SVG Export Plug-In . SVG Version: 6.00 Build 0)  -->
<svg version="1.1" id="Ebene_1" xmlns="http://www.w3.org/2000/svg" xmlns:xlink="http://www.w3.org/1999/xlink" x="0px" y="0px"
	 viewBox="0 0 200 60" style="enable-background:new 0 0 200 60;" xml:space="preserve">
<style type="text/css">
	.st0{fill:#E20F16;}
	.st1{fill:#FFFFFF;}
	.st2{font-family:'NDSFrutiger-Light',-apple-system,BlinkMacSystemFont,'Segoe UI',Roboto,'Helvetica Neue',Arial,sans-serif;font-size:16px;}
</style>
<g id="icon">
	<circle id="circle" class="st0" cx="30" cy="30" r="30"/>
	<path id="dash" class="st1" d="M57.8,41.3H2.2C2.4,41.9,2.7,42.5,3,43h54C57.3,42.5,57.5,41.9,57.8,41.3z"/>
	<path id="M" class="st1" d="M49.9,30.8c-0.1-2.3-0.3-5-0.2-7.1h-0.1c-0.5,1.9-1.2,4-2,6.2l-2.9,8h-1.6l-2.6-7.8
		c-0.8-2.3-1.4-4.4-1.9-6.4h-0.1c-0.1,2-0.2,4.8-0.3,7.3l-0.4,7h-2l1.1-16.4h2.7l2.8,7.9c0.7,2,1.2,3.8,1.6,5.5l0,0
		c0.4-1.7,1-3.4,1.7-5.5l2.9-7.9h2.7l1,16.4h-2L49.9,30.8z"/>
	<path id="G" class="st1" d="M33,37.3c-1.6,0.6-3.3,0.9-5,0.9c-2.2,0.1-4.4-0.7-6.1-2.2c-1.5-1.6-2.4-3.8-2.3-6.1
		c0-4.9,3.3-8.5,8.8-8.5c1.4,0,2.8,0.2,4,0.8L32,23.9c-1.1-0.5-2.3-0.7-3.6-0.7c-3.9,0-6.5,2.5-6.5,6.6s2.5,6.6,6.2,6.6
		c1,0.1,1.9-0.1,2.8-0.4v-4.9h-3.3v-1.7H33V37.3z"/>
	<path id="T" class="st1" d="M12.5,23.4H7.6v-1.8h12v1.8h-5V38h-2.1V23.4z"/>
</g>
<g id="title">
	<text transform="matrix(1 0 0 1 66.0005 20.6)" class="st2"><tspan x="0" y="0" class="st3 st4">Technik und</tspan><tspan x="0" y="16" class="st3 st4">Gesundheit für </tspan><tspan x="0" y="32" class="st3 st4">Menschen</tspan></text>
</g>
</svg>
